#N canvas 16 23 864 535 10;
#X obj 273 217 mrpeach/unpackOSC;
#X obj 274 244 mrpeach/routeOSC /wek/outputs;
#X obj 146 531 *~;
#X obj 141 569 dac~;
#X obj 116 472 osc~;
#X obj 38 221 mrpeach/unpackOSC;
#X obj 39 248 mrpeach/routeOSC /wek/outputs;
#X obj 38 194 mrpeach/udpreceive 7008;
#X obj 273 190 mrpeach/udpreceive 12000;
#X floatatom 273 269 5 0 0 0 - - -;
#X floatatom 39 275 5 0 0 0 - - -;
#X floatatom 115 445 5 0 0 0 - - -;
#X obj 300 420 hsl 128 15 0 1 0 0 empty empty empty -2 -8 0 10 -262144
-1 -1 0 1;
#X msg 274 327 0;
#X obj 273 295 moses 0;
#X obj 312 321 moses 1;
#X msg 346 352 1;
#X msg 40 336 0;
#X obj 39 304 moses 0;
#X obj 78 330 moses 1;
#X msg 112 361 1;
#X obj 37 76 tgl 15 0 empty empty empty 17 7 0 10 -262144 -1 -1 0 1
;
#X msg 37 96 \; pd dsp \$1;
#X text 59 73 Turn DSP on;
#X text 36 165 Frequency Control;
#X text 269 162 Amplitude Control;
#X obj 113 416 * 600;
#X connect 0 0 1 0;
#X connect 1 0 9 0;
#X connect 2 0 3 0;
#X connect 2 0 3 1;
#X connect 4 0 2 0;
#X connect 5 0 6 0;
#X connect 6 0 10 0;
#X connect 7 0 5 0;
#X connect 8 0 0 0;
#X connect 9 0 14 0;
#X connect 10 0 18 0;
#X connect 11 0 4 0;
#X connect 12 0 2 1;
#X connect 13 0 12 0;
#X connect 14 0 13 0;
#X connect 14 1 15 0;
#X connect 15 0 12 0;
#X connect 15 1 16 0;
#X connect 16 0 12 0;
#X connect 17 0 26 0;
#X connect 18 0 17 0;
#X connect 18 1 19 0;
#X connect 19 0 26 0;
#X connect 19 1 20 0;
#X connect 20 0 26 0;
#X connect 21 0 22 0;
#X connect 26 0 11 0;
